/* XPM */
static char *_8f93894f0d948caf4eb86b1ff7f99c64yyFhuyqiK2XEwnQ[] = {
/* columns rows colors chars-per-pixel */
"64 64 15 1 ",
"  c black",
". c #192E10",
"X c #272727",
"o c gray19",
"O c #264D17",
"+ c #264719",
"@ c #594225",
"# c #6E592E",
"$ c #7A5A35",
"% c gray26",
"& c #6C5B46",
"* c #896439",
"= c #996F3F",
"- c #439124",
"; c #B0824A",
/* pixels */
";;;;;==;;;;;;;;;;;;;;==;;;;;;;;;;;;;;;==;;;;;;;;;;;;;;==;;;;;;;;",
";;;;;==;;;;;;;;;;;;;;==;;;;;;;;;;;;;;;==;;;;;;;;;;;;;;==;;;;;;;;",
";;;;;==;;;;;;;;;;;;;;==;;;;;;;;;;;;;;;==;;;;;;;;;;;;;;==;;;;;;;;",
";;;;;==;;;;;;;;;;;;;;==;;;;;;;;;;;;;;;==;;;;;;;;;;;;;;==;;;;;;;;",
"=====##;;;;;;;;;;====##;;;;;;;;;;;====##;;;;;;;;;;====##;;;;;;;;",
"=====##;;;;;;;;;;====##;;;;;;;;;;;====##;;;;;;;;;;====##;;;;;;;;",
"=****##;;;;;;======**##;;;;;;=======**##;;;;;;======**##;;;;;;==",
"=****##;;;;;;======**##;;;;;;=======**##;;;;;;======**##;;;;****",
"*****@@;;;;====******@@;;;;=====******##;;;;====******@@;;;;****",
"*****@@;;;;====******@@;;;;=====******##;;;;====******@@;;;;****",
"*****@@;;;;====******@@;;;;=====******##;;;;====******@@;;;;****",
"ooooooooooo%%%%%%%%%%%%%%%%ooooo%%%%oooooooooooooooo%%%%oooooooo",
"ooooooooooo%%%%%%%%%%%%%%%%ooooo%%%%oooooooooooooooo%%%%oooooooo",
"ooooooooooooooo%%%%ooooooooooooooooooooooooooooooooooooooooooooo",
"ooooooooooooooo%%%%ooooooooooooooooooooooooooooooooooooooooooooo",
"XXXXXXXXXXXXXXXooooooooXXXXXXXXXXXXXXXXXXXXXXXXXXXXXXXXXXXXXXXXX",
"XXXXXXXXXXXXXXXooooooooXXXXXXXXXXXXXXXXXXXXXXXXXXXXXXXXXXXXXXXXX",
"XXXXXXXXXXXXXXXXXooXXXXXXXXXXXXXXXXXXXXXXXXXXXXXXXXXXXXXXXXXXXXX",
"XXXXXXXXXXXXXXXXXooXXXXXXXXXXXXXXXXXXXXXXXXXXXXXXXXXXXXXXXXXXXXX",
"*****@@****$$$$$$$$$$@@****$$$$$$$$$$$@@****$$$$$$$$$$##****$$$$",
"*****@@****$$$$$$$$$$@@****$$$$$$$$$$$@@****$$$$$$$$$$##****$$$$",
"*****@@**$$$$$$$$$$$$@@****$$$$$$$$$$$@@**====$$$$$$$$##****$$$$",
"*****@@**$$$$$$$$$$$$@@****$$$$$$$$$$$@@**====$$$$$$$$##****====",
"===**##========******@@**=======;;;;$$##========;;;;$$@@****====",
"=====##==========****@@=========;;;;;;##====;;;;;;;;;;@@**======",
"=====##==========****@@=========;;;;;;##====;;;;;;;;;;@@**======",
"=====&&;;==========**##;;=======;;;;;;&&==;;;;**;;;;;;&&**======",
"=====&&;;==========**##;;=======;;;;;;&&==;;;;**;;;;;;&&**======",
"=====&&;;;;==========##;;=======;;;;;;&&==;;;;**;;;;;;&&**======",
"=====&&;;;;==========##;;=======;;;;;;&&==;;;;**;;;;;;&&**======",
"=====##;;;;****======&&;;;;=====****;;&&;;;;****==;;;;@@========",
"=====##;;;;****======&&;;;;=====****;;&&;;;;****==;;;;@@========",
"=====##;;;;****======&&;;;;=====******&&;;;;****====;;@@========",
"=====##;;;;****======&&;;;;=====******&&;;;;****====;;@@========",
"=====@@;;**$$$$======&&;;=======******@@;;;;****====;;@@========",
"=====@@;;**$$$$======&&;;=======******@@;;;;****====;;@@========",
"=====@@;;**$$$$======&&=========******@@;;;;****======@@========",
"=====@@;;**$$$$======&&=========******@@;;;;****======@@========",
"=====@@****$$$$****==@@===========****@@;;$$$$$$======##========",
"=====@@****$$$$******@@=============**@@;;$$$$$$======##========",
"=====@@****$$$$******@@=============**@@;;$$$$$$======##========",
"ooooooooooo%%%%%%%%%%%%%%%%ooooo%%%%oooooooooooooooo%%%%oooooooo",
"ooooooooooo%%%%%%%%%%%%%%%%ooooo%%%%oooooooooooooooo%%%%oooooooo",
"ooooooooooooooo%%%%%%ooooooooooooooooooooooooooooooooooooooooooo",
"ooooooooooooooo%%%%%%ooooooooooooooooooooooooooooooooooooooooooo",
"XXXXXXXXXXXXXXXooooooooXXXXXXXXXXXXXXXXXXXXXXXXXXXXXXXXXXXXXXXXX",
"XXXXXXXXXXXXXXXooooooooXXXXXXXXXXXXXXXXXXXXXXXXXXXXXXXXXXXXXXXXX",
"XXXXXXXXXXXXXXXXXooXXXXXXXXXXXXXXXXXXXXXXXXXXXXXXXXXXXXXXXXXXXXX",
"XXXXXXXXXXXXXXXXXooXXXXXXXXXXXXXXXXXXXXXXXXXXXXXXXXXXXXXXXXXXXXX",
"*****@@****$$$$$$$$$$@@****$$$$$$$$$$$@@****$$$$$$$$$$@@****$$$$",
"*****@@****$-$$$$$$O$@@****$$$$$$$$$$$@@****$$$$$$$$$$@@****$$$$",
"**-**O@*-==-O--$$$-$$@@*-;;$$$$$--$$$$@@-O**$$-*$$$$$$--**;;==$-",
"**-**@@-O-OO$$$-$-O$$--*-O;$-$$-OO--$$@-O**-$$-O$$-$$-OO---;==-O",
"*--*-#-O=OO*-**=--=----;O;;-O-OOO$$$-$--===--*O*=-O-OOO#;;;-=-O=",
"OO-*O-O-OO**-O*-OO----#-O;-O=OO**-***-OO------O*-O=OO=#-;;;;-O**",
"OO--O-O-O-.-OO-OOOOOO-#OO-O-OO**--O*-O#-OOO-*OO-O-OO==--O;;-O*--",
"O+O---O-O--+OO-OOOOOO--OO-O-O-.--OO-OOOOOOO--OO-O-O-.--OO--OOOOO",
".....OO-.O++.O-++..O+O--O-O-O--++OO-OOO..O+O--O-O-O--++OO--OOOO-",
"..........+.....-........OO-.O+++.O-+++........OO-.O+++.O--+++--",
"..............................+.+....---O...........+.+.....---O",
"                                                                ",
"                                                                ",
"                                                                ",
"                                                                "
};
