/* XPM */
static char *_f58227bbb2c4f3d8bf2770c31b1fc24p3YFvORK5sCyMFVh[] = {
/* columns rows colors chars-per-pixel */
"64 64 15 1 ",
"  c black",
". c #192E10",
"X c #272727",
"o c gray19",
"O c #264D17",
"+ c #264719",
"@ c #594225",
"# c #6E592E",
"$ c #7A5A35",
"% c gray26",
"& c #6C5B46",
"* c #896439",
"= c #996F3F",
"- c #439124",
"; c #B0824A",
/* pixels */
";;;;;==;;;;;;;;;;;;;;==;;;;;;;;;;;;;;;==;;;;;;;;;;;;;;==;;;;;;;;",
";;;;;==;;;;;;;;;;;;;;==;;;;;;;;;;;;;;;==;;;;;;;;;;;;;;==;;;;;;;;",
";;;;;==;;;;;;;;;;;;;;==;;;;;;;;;;;;;;;==;;;;;;;;;;;;;;==;;;;;;;;",
";;;;;==;;;;;;;;;;;;;;==;;;;;;;;;;;;;;;==;;;;;;;;;;;;;;==;;;;;;;;",
"=====##;;;;;;;;;    =##;;;;;;; ;;;====##;;;;;;;;;;====##;;;;;;;;",
"=====##;;;;;;;;;     ##;;;;;;  ;;;====##;;;;;;;;;;====##;;;;;;;;",
"=****##;;;;;;=====     ;;;;   ======**##;;;;;;======**##;;;;;;==",
"=****##;;;;;;======    ;;;   =======**##;;;;;;======**##;;;;****",
"*****@@;;;;====****    ;;   ====******##;;;;====******@@;;;;****",
"*****@@;;;;====*****   ;;   ====******##;;;;====******@@;;;;****",
"*****@@;;;;=           ;          ****##;;;;====******@@;;;;****",
"ooooooooooo %%      %     %     %%%%oooooooooooooooo%%%%oooooooo",
"ooooooooooo%%%%%%%            oo%%%%oooooooooooooooo%%%%oooooooo",
"ooooooooooooooo%%%%oo      ooooooooooooooooooooooooooooooooooooo",
"ooooooooooooooo%                oooooooooooooooooooooooooooooooo",
"XXXXXXXXXXXXXX                   XXXXXXXXXXXXXXXXXXXXXXXXXXXXXXX",
"XXXXXXXXXXXXX     ooo      X      XXXXXXXXXXXXXXXXXXXXXXXXXXXXXX",
"XXXXXXXXXXXX   XXoo  X XXX   XXXXXXXXXXX  XXXXXXXXXXXXXXXXXXXXXX",
"XXXXXXXXXXX  XXXXo  XX XXXX   XXXXXXXXXX  XXXXXXXXXXXXXXXXXXXXXX",
"*****@@****  $$$$$  $@ ****   $$$$$$$$@@*  *$$$$$$$$$$##****$$$$",
"*****@@**** $$$$$   $@ ****    $$$$$ $@@*  *$$$$$$$$$$##****$$$$",
"*****@@**$$$$$$$   $$@ ****$$   $$$$$  @*   ==$$$$$$$$##****$$$$",
"*****@@**$$$$$$    $$  ****$$   $$$$$   *   ==$$$$$$$$##****====",
"===**##========  ****  **=====   ;;;$   =   ===   ;;$$@@****====",
"=====##=======  =**** @=======   ;;;;;             ;;;@@**======",
"=====##=======  =***   ======                  ;;;;;;;@@**======",
"=====&&;;===== ====*   ;;======             ;;**;;;;;;&&**======",
"=====&&;;==========**  ;;=======  ;;;;            ;;;;&&**======",
"=====&&;;;;==========  ;;=======;;                  ;;&&**======",
"=====&&;;;;==========  ;;=======;      &    ;;*      ;&&**======",
"=====##;;;;****======  ;;;;=====     ;&&      **==;; ;@@========",
"=====##;;;;****======  ;;;;====    *;;&  ;      ==;;;;@@========",
"=====##;;;;****======  ;;;;===  *****  &;;; **  ====;;@@========",
"=====##;;;;****======  ;;;;== ==***** &&;;;  **  ===;;@@========",
"=====@@;;**$$$$======  ;;=======****  @@;;;  *** ===;;@@========",
"=====@@;;**$$$$======  ;;=======**** *@@;;;   ** ===;;@@========",
"=====@@;;**$$$$======& =========***  *@@;;;  *** =====@@========",
"=====@@;;**$$$$======&  ========***  *@@;;;  *** =====@@========",
"=====@@****$$$$****==@  ==========   *@@;;$$ $$$======##========",
"=====@@****$$$$******@  ==========  **@@;;$$ $$$======##========",
"=====@@****$$$$******@@  =========  **@@;;$$ $$$======##========",
"ooooooooooo%%%%%%%%%%%%  %%ooooo%% %oooooooo ooooooo%%%%oooooooo",
"ooooooooooo%%%%%%%%%%%%  %%ooooo%  %oooooooo ooooooo%%%%oooooooo",
"ooooooooooooooo%%%%%%oo   ooooooo  oooooooo oooooooooooooooooooo",
"ooooooooooooooo%%%%%%oo   ooooooo  ooooooooooooooooooooooooooooo",
"XXXXXXXXXXXXXXXooooooooX   XXXXXX  XXXXXXXXXXXXXXXXXXXXXXXXXXXXX",
"XXXXXXXXXXXXXXXooooooooX   XXXXXX XXXXXXXXXXXXXXXXXXXXXXXXXXXXXX",
"XXXXXXXXXXXXXXXXXooXXXXXX   XXXXX XXXXXXXXXXXXXXXXXXXXXXXXXXXXXX",
"XXXXXXXXXXXXXXXXXooXXXXXX    XXXX XXXXXXXXXXXXXXXXXXXXXXXXXXXXXX",
"*****@@****$$$$$$$$$$@@***   $$$$ $$$$@@****$$$$$$$$$$@@****$$$$",
"*****@@****$-$$$$$$O$@@***    $$$ $$$$@@****$$$$$$$$$$@@****$$$$",
"**-**O@*-==-O--$$$-$$@@*-;;    $- $$$$@@-O**$$-*$$$$$$--**;;==$-",
"**-**@@-O-OO$$$-$-O$$--*-O;    -O --$$@-O**-$$-O$$-$$-OO---;==-O",
"*--*-#-O=OO*-**=--=----;O;;       $$-$--===--*O*=-O-OOO#;;;-=-O=",
"OO-*O-O-OO**-O*-OO----#-O;-O=      **-OO------O*-O=OO=#-;;;;-O**",
"OO--O-O-O-.-OO-OOOOOO-#OO-O-OO      -O#-OOO-*OO-O-OO==--O;;-O*--",
"O+O---O-O--+OO-OOOOOO--OO-O-O-       OOOOOO--OO-O-O-.--OO--OOOOO",
".....OO-.O++.O-++..O+O--O-O-O-       OO..O+O--O-O-O--++OO--OOOO-",
"..........+.....-........OO            ........OO-.O+++.O--+++--",
"...........................             O...........+.+.....---O",
"                                                                ",
"                                                                ",
"                                                                ",
"                                                                "
};
