/* XPM */
static char *_a3a5699d8f14cd6a0b34863d0a6dd30uIbXmt3Ku7tgsfcR[] = {
/* columns rows colors chars-per-pixel */
"64 64 51 1 ",
"  c black",
". c #2D1304",
"X c #391E0B",
"o c #192E10",
"O c #272727",
"+ c gray19",
"@ c #613D24",
"# c #224215",
"$ c #264D17",
"% c #264719",
"& c #274E18",
"* c #2A4F18",
"= c #2E4C19",
"- c #285017",
"; c #295018",
": c #2A5619",
"> c #2D571A",
", c #2D521E",
"< c #31571C",
"1 c #31651C",
"2 c #37671F",
"3 c #3F691B",
"4 c #594225",
"5 c #6E592E",
"6 c #7A5A35",
"7 c #446924",
"8 c #4D7424",
"9 c #686F34",
"0 c gray26",
"q c #6C5B46",
"w c #5D7653",
"e c #896439",
"r c #996F3F",
"t c #3D8521",
"y c #3F8922",
"u c #418320",
"i c #468724",
"p c #448E24",
"a c #429123",
"s c #439124",
"d c #449225",
"f c #539027",
"g c #56952C",
"h c #529737",
"j c #718D2E",
"k c #7A9B3C",
"l c #B0824A",
"z c #C68642",
"x c #E0AC69",
"c c #EAC086",
"v c #C0C0C0",
/* pixels */
"lllllrrllllllllllllllrrlllllllllllllllrrllllllllllllllrrllllllll",
"lllllrrllllllllllllllrrlllllllllllllllrrllllllllllllllrrllllllll",
"lllllrrllllllllllllllrrlllllllllllllllrrllllllllllllllrrllllllll",
"lllllrrllllllllllllllrrlllllllllllllllrrllllllllllllllrrllllllll",
"rrrrr55llllllllllrrrr55lllllllllllrrrr55llllllllllrrrr55llllllll",
"rrrrr55llllllllllrrrr55lllllllllllrrrr55llllllllllrrrr55llllllll",
"reeee55llllllrrrrrree55llllllrrrrrrree55llllllrrrrrree55llllllrr",
"reeee55llllllrrrrrree55llllllrrrrrrree55llllllrrrrrree55lllleeee",
"eeeee44llllrrrreeeeee44llllrrrrreeeeee55llllrrrreeeeee44lllleeee",
"eeeee44llllrrrreeeeee44llllrrrrreeeeee55llllrrrreeeeee44lllleeee",
"eeeee44llllrrrreeeeee44llllrrrrreeeeee55llllrrrreeeeee44lllleeee",
"+++++++++++0000000000000000+++++0000++++++++++++++++0000++++++++",
"+++++++++++0000000000000000+++++0000++++++++++++++++0000++++++++",
"+++++++++++++++0000+++++++++++++++++++++++++++++++++++++++++++++",
"+++++++++++++++0000+++++++++++++++++++++++++++++++++++++++++++++",
"OOOOOOOOOOOOOOO++++++++OOOOOOOOOOOOOOOOOOOOOOOOOOOOOOOOOOOOOOOOO",
"OOOOOOOOOOOOOOO++++++++OOOOOOOOOOOOOOOOOOOOOOOOOOOOOOOOOOOOOOOOO",
"OOOOOOOOOOOOOOOOO++OOOOOOOOOOOOOOOOOOOOOOOOOOOOOOOOOOOOOOOOOOOOO",
"OOOOOOOOOOOOOOOOO++OOOOOOOOOOOOOOOOOOOOOOOOOOOOOOOOOOOOOOOOOOOOO",
"eeeee44eeee666666666644eeee6666666666644eeee666666666655eeee6666",
"eeeee44eeee666666666644eeee6666666666644eeee666666666655eeee6666",
"eeeee44ee66666666666644eeee6666666666644eerrrr6666666655eeee6666",
"eeeee44ee66666666666644eeee6666666666644eerrrr6666666655eeeerrrr",
"rrree55rrrrrrrreeeeee44eerrrrrrrllll6655rrrrrrrrllll6644eeeerrrr",
"rrrrr55rrrrrrrrrreeee44rrrrrrrrrllllll55rrrrllllllllll44eerrrrrr",
"rrrrr55rrrrrrrrrreeee44rrrrrrrrrllllll55rrrrllllllllll44eerrrrrr",
"rrrrrqqllrrrrrrrrrree55llrrrrrrrllllllqqrrlllleellllllqqeerrrrrr",
"rrrrrqqllrrrrrrrrrree55llrrrrrrrllllllqqrrlllleellllllqqeerrrrrr",
"rrrrrqqllllrrrrrrrrrr55llrrrrrrrllllllqqrrlllleellllllqqeerrrrrr",
"rrrrrqqllllrrrrrrrrrr55llrrrrrrrllllllqqrrlllleellllllqqeerrrrrr",
"rrrrr55lllleeeerrrrrrqqllllrrrrreeeellqqlllleeeerrllll44rrrrrrrr",
"rrrrr55lllleeeerrrrrrqqllllrrrrreeeellqqlllleeeerrllll44rrrrrrrr",
"rrrrr55lllleeeerrrrrrqqllllrrrrreeeeeeqqlllleeeerrrrll44rrrrrrrr",
"rrrrr55lllleeeerrrrrrqqllllrrrrreeeeeeqqlllleeeerrrrll44rrrrrrrr",
"rrrrr44llee6666rrrrrrqqllrrrrrrreeeeee44lllleeeerrrrll44rrrrrrrr",
"rrrrr44llee6666rrrrrrqqllrrrrrrreeeeee44lllleeeerrrrll44rrrrrrrr",
"rrrrr44llee6666rrrrrrqqrrrrrrrrreeeeee44lllleeeerrrrrr44rrrrrrrr",
"rrrrr44llee6666rrrrrrqqrrrrrrrrreeeeee44lllleeeerrrrrr44rrrrrrrr",
"rrrrr44eeee6666eeeerr44rrrrrrrrrrreeee44ll666666rrrrrr55rrrrrrrr",
"rrrrr44eeee6666eeeeee44rrrrrrrrrrrrree44ll666666rrrrrr55rrrrrrrr",
"rrrrr44eeee6666eeeeee44rrrrrrrrrrrrree44ll666666rrrrrr55rrrrrrrr",
"+++++++++++0000000000000000+++++0000++++++++++++++++0000++++++++",
"+++++++++++0000000000000000+++++0000++++vvcxxxxxxxxxxv00++++++++",
"+++++++++++++++000000+++++++++++++++++++xxcxzxxxxxxzzv++++++++++",
"+++++++++++++++000000+++++++++vvvxxxxxxxxvccXXXXX...cc++++++++++",
"OOOOOOOOOOOOOOO++++++++OOOOOOOxxvzxxxxxxzvczx@@@XXX.xxOOOOOOOOOO",
"OOOOOOOOOOOOOOO++++++++OOOOOOOxxxx@XXX..vvXxxz@@@@XXzxOOOOOOOOOO",
"OOOOOOOOOOOOOOOOO++OOOOOOOOOOOzxxxc@@@XXzxXXzxz@@@@XxxOOOOOOOOOO",
"OOOOOOOOOOOOOOOOO++OOOOOOOOOOOxxXcxz@@@Xxx@XXxxc@@@@xxOOOOOOOOOO",
"eeeee44eeee666666666644eeee666xx@Xxxc@@@xx@@@Xcxx@@@xx44eeee6666",
"eeeee44eeee6s666666$644eeee666zx@@Xcxx@@xx@@@@Xxxx@@xz44eeee6666",
"eesee$4esrrs$ss666s6644esll666xx@@@Xxxcixzii@@XXxzx@xxsseellrr6s",
"eesee44s$s$$666s6s$66sses$l6s6zx@@@@Xcgdgxss@@pXuxg>zx$$ssslrrs$",
"esses5s$r$$eseerssrssssl$llsysvv@@@@Xu:d:xs&=is8a3d$:7$5lllsrs$r",
"$$se$s$s$$ees$es$$ssss5s$ls$sa,>ggxffd&:$2d$>d1j;kd$:<5slllls$ee",
"$$ss$s$s$sos$$s$$$$$$s5$$s$sya;&2:>::2&:$;>$2>;*$9g;hwss$lls$ess",
"$%$sss$s$ss%$$s$$$$$$ss$$s$s$at:1::::$-y$:$:1$$$$:$1oss$$ss$$$$$",
"ooooo$$so$%%o$s%%oo$%$ss$s$s$ss%%$$s$$$o#$%$ss$s$1$ss%%$$ss$$$$s",
"oooooooooo%ooooosoooooooo$$so$%%%o$s%%%oooooooo$$so$%%%o$ss%%%ss",
"oooooooooooooooooooooooooooooo%o%oooosss$ooooooooooo%o%ooooosss$",
"                                                                ",
"                                                                ",
"                                                                ",
"                                                                "
};
