/* XPM */
static char *cc73d6d93ecd40a4bf77be45e6f1be91dFrmIJAA03pQkPkv[] = {
/* columns rows colors chars-per-pixel */
"64 64 21 1 ",
"  c black",
". c #192E10",
"X c #272727",
"o c #3E2723",
"O c gray19",
"+ c #572E18",
"@ c #264D17",
"# c #264719",
"$ c #594225",
"% c #6E592E",
"& c #7A5A35",
"* c gray26",
"= c #6C5B46",
"- c #785D4F",
"; c #896439",
": c #996F3F",
"> c #439124",
", c #699C3E",
"< c #B0824A",
"1 c #A38E88",
"2 c #DEB9A6",
/* pixels */
"<<<<<::<<<<<<<<<<<<<<::<<<<<<<<<<<<<<<::<<<<<<<<<<<<<<::<<<<<<<<",
"<<<<<::<<<<<<<<<<<<<<::<<<<<<<<<<<<<<<::<<<<<<<<<<<<<<::<<<<<<<<",
"<<<<<::<<<<<<<<<<<<<<::<<<<<<<<<<<<<<<::<<<<<<<<<<<<<<::<<<<<<<<",
"<<<<<::<<<<<<<<<<<<<<::<<<<<<<<<<<<<<<::<<<<<<<<<<<<<<::<<<<<<<<",
":::::%%<<<<<<<<<<::::%%<<<<<<<<<<<::::%%<<<<<<<<<<::::%%<<<<<<<<",
":::::%%<<<<<<<<<<::::%%<<<<<<<<<<<::::%%<<<<<<<<<<::::%%<<<<<<<<",
":;;;;%%<<<<<<::::::;;%%<<<<<<:::::::;;%%<<<<<<::::::;;%%<<<<<<::",
":;;;;%%<<<<<<::::::;;%%<<<<<<:::::::;;%%<<<<<<::::::;;%%<<<<;;;;",
";;;;;$$<<<<::::;;;;;;$$<<<<:::::;;;;;;%%<<<<::::;;;;;;$$<<<<;;;;",
";;;;;$$<<<<::::;;;;;;$$<<<<:::::;;;;;;%%<<<<::::;;;;;;$$<<<<;;;;",
";;;;;$$<<<<::::;;;;;;$$<<<<:::::;;;;;;%%<<<<::::;;;;;;$$<<<<;;;;",
"OOOOOOOOOOO****************OOOOO****OOOOOOOOOOOOOOOO****OOOOOOOO",
"OOOOOOOOOOO****************OOOOO****OOOOOOOOOOOOOOOO****OOOOOOOO",
"OOOOOOOOOOOOOOO****OOOOOOOOOOOOOOOOOOOOOOOOOOOOOOOOOOOOOOOOOOOOO",
"OOOOOOOOOOOOOOO****OOOOOOOOOOOOOOOOOOOOOOOOOOOOOOOOOOOOOOOOOOOOO",
"XXXXXXXXXXXXXXXOOOOOOOOXXXXXXXXXXXXXXXXXXXXXXXXXXXXXXXXXXXXXXXXX",
"XXXXXXXXXXXXXXXOOOOOOOOXXXXXXXXXXXXXXXXXXXXXXXXXXXXXXXXXXXXXXXXX",
"XXXXXXXXXXXXXXXXXOOXXXXXXXXXXXXXXXXXXXXXXXXXXXXXXXXXXXXXXXXXXXXX",
"XXXXXXXXXXXXXXXXXOOXXXXXXXXXXXXXXXXXXXXXXXXXXXXXXXXXXXXXXXXXXXXX",
";;;;;$$;;;;&&&&&&&&&&$$;;;;&&&&&&&&&&&$$;;;;&&&&&&&&&&%%;;;;&&&&",
";;;;;$$;;;;&&&&&&&&&&$$;;;;&&&&&&&&&&&$$;;;;&&&&&&&&&&%%;;;;&&&&",
";;;;;$$;;&&&&&&&&&&&&$$;;;;&&&&&&&&&&&$$;;::::&&&&&&&&%%;;;;&&&&",
";;;;;$$;;&&&&&&&&&&&&$$;;;;&&&&&&&&&&&$$;;::::&&&&&&&&%%;;;;::::",
":::;;%%::::::::;;;;;;$$;;:::::::<<<<&&%%::::::::<<<<&&$$;;;;::::",
":::::%%::::::::::;;;;$$:::::::::<<<<<<%%::::<<<<<<<<<<$$;;::::::",
":::::%%::::::::::;;;;$$:::::::::<<<<<<%%::::<<<<<<<<<<$$;;::::::",
":::::==<<::::::::::;;%%<<:::::::<<<<<<==::<<<<;;<<<<<<==;;::::::",
":::::==<<::::::::::;;%%<<:::::::<<<<<<==::<<<<;;<<<<<<==;;::::::",
":::::==<<<<::::::::::%%<<:::::::<<<<<<==::<<<<;;<<<<<<==;;::::::",
":::::==<<<<::::::::::%%<<:::::::<<<<<<==::<<<<;;<<<<<<==;;::::::",
":::::%%<<<<;;;;::::::==<<<<:::::;;;;<<==<<<<;;;;::<<<<$$::::::::",
":::::%%<<<<;;;;::::::==<<<<:::::;;;;<<==<<<<;;;;::<<<<$$::::::::",
":::::%%<<<<;;;;::::::==<<<<:::::;;;;;;==<<<<;;;;::::<<$$::::::::",
":::::%%<<<<;;;;::::::==<<<<:::::;;;;;;==<<<<;;;;::::<<$$::::::::",
":::::$$<<;;&&&&::::::==<<:::::::;;;;;;$$<<<<;;;;::::<<$$::::::::",
":::::$$<<;;&&&&::::::==<<:::::::;;;;;;$$<<<<;;;;::::<<$$::::::::",
":::::$$<<;;&&&&::::::==:::::::::;;;;;;$$<<<<;;;;::::::$$::::::::",
":::::$$<<;;&&&&::::::==:::::::::;;;;;;$$<<<<;;;;::::::$$::::::::",
":::::$$;;;;&&&&;;;;::$$:::::::::::;;;;$$<<&&&&&&::::::%%::::::::",
":::::$$;;;;&&&&;;;;;;$$:::::::::::::;;$$<<&&&&&&::::::%%::::::::",
":::::$$;;;;&&&&;;;;;;$$:::::::::::::;;$$<<&&&&&&::::::%%::::::::",
"OOOOOOOOOOO****************OOOOO****OOOOOOOOoOOOOOOO****OOOOOOOO",
"OOOOOOOOOOO****************OOOOO****OOOOOOO12-oOOOOO****OOOOOOOO",
"OOOOOOOOOOOOOOO******OOOOOOOOOOOOOOOOOOOOOo12--oOOOOOOOOOOOOOOOO",
"OOOOOOOOOOOOOOO******OOOOOOOOOOOOOOOOOOOOo111--+oOOOOOOOOOOOOOOO",
"XXXXXXXXXXXXXXXOOOOOOOOXXXXXXXXXXXXXXXXXX1111---+XXXXXXXXXXXXXXX",
"XXXXXXXXXXXXXXXOOOOOOOOXXXXXXXXXXXXXXXXXo1-11-+-+XXXXXXXXXXXXXXX",
"XXXXXXXXXXXXXXXXXOOXXXXXXXXXXXXXXXXXXXXXo-112----oXXXXXXXXXXXXXX",
"XXXXXXXXXXXXXXXXXOOXXXXXXXXXXXXXXXXXXXXo1-112----+oXXXXXXXXXXXXX",
";;;;;$$;;;;&&&&&&&&&&$$;;;;&&&&&&&&&&&$11112-+----+&&&$$;;;;&&&&",
";;;;;$$;;;;&>&&&&&&@&$$;;;;&&&&&&&&&&&111112--+--++o&&$$;;;;&&&&",
";;>;;@$;>::>@>>&&&>&&$$;><<&&&&&>>&&&&11111---+----o&&>>;;<<::&>",
";;>;;$$>@>@@&&&>&>@&&>>;>@<&>&&>@@>>&o1111----+--+++o>@@>>><::>@",
";>>;>%>@:@@;>;;:>>:>>>><@<<>@>@@@&&&o11111----+--++-+o@%<<<>:>@:",
"@@>;@>@>@@;;>@;>@@>>>>%>@<>@:@@;;>;;o111-1--+++--+-++o%><<<<>@;;",
"@@>>@>@>@>.>@@>@@@@@@>%@@>@>@@;;>>@;1>1-1--->>++++->++>>@<<>@;>>",
"@#@>>>@>@>>#@@>@@@@@@>>@@>@>@>.>>@o>1>@-1>->@@>+++>@++o@@>>@@@@@",
".....@@>.@##.@>##..@#@>>@>@>@>>>#@->-@-->@@@@++>+>@+++>+o>>@@@@>",
"..........#.....>........@@>.@##@@@>@@>@>@++>>@>@+>>@@++,>>###>>",
"..............................#.#@@>@@>@>@.>>@@@@@@@++,,....>>>@",
"                               ..@#@>@>@>@>##@@@@@@>@@@         ",
"                               .......@@>.###.@###>>            ",
"                                 .........#.#...>>>@            ",
"                                                                "
};
